<?xml version="1.0" encoding="UTF-8"?>
<svg id="Layer_1" data-name="Layer 1" xmlns="http://www.w3.org/2000/svg" version="1.1" viewBox="0 0 800 800">
  <path d="M400,0C179.1,0,0,179.1,0,400c0,13.7.8,27.3,2.2,40.9,23.3,219.7,220.2,378.9,439.9,355.7,187.6-19.9,335.8-168.1,355.7-355.7,1.5-13.6,2.2-27.2,2.2-40.9C800,179.1,620.9,0,400,0ZM640.9,596.4c-.4,0-2.7,3.6-3.1,3.6-109.9,131.3-305.4,148.7-436.7,38.9-14.1-11.8-27.1-24.8-38.9-38.9-.4,0-2.7-3.6-3.1-3.6-2.4-3.5-3.8-7.7-4-12,.2-9.5,6.2-18,15.1-21.3,32.9-11.1,64.4-21.8,73.3-24-.4-2,0-4.1,1.3-5.8,2.4-8.8,10-15.2,19.1-16l56.4-4.4c-.5-12.1-3.3-24.1-8.4-35.1v-.4c-4.8-12.6-11.5-24.3-20-34.7-23.2-30.3-35.6-67.6-35.1-105.8-5.1-81.7,56.2-152.5,137.8-159.1h10.7c81.6,6.6,142.9,77.4,137.8,159.1.5,38.2-11.9,75.5-35.1,105.8-8.5,10.4-15.2,22.1-20,34.7v.4c-5.1,11-8,23-8.4,35.1l56.4,4.4c9.1.8,16.7,7.2,19.1,16,1.3,1.6,1.8,3.7,1.3,5.8,8.9,2.2,40.4,12.9,73.3,24,11.5,3.7,17.8,15.9,14.1,27.4-.7,2.1-1.7,4.1-3,5.9h0Z" fill="#2e304c" stroke-width="0"/>
</svg>