<svg xmlns="http://www.w3.org/2000/svg" id="Layer_2" data-name="Layer 2" viewBox="0 0 147.37 86.12">
<defs>
<style>.cls1{fill:#fff;stroke-width:0}</style>
</defs>
<g id="Layer_2-2" data-name="Layer 2"><path d="M145.98 26.24c-2.98-3.17-6.41-5.92-10.25-7.95L112.35 6.33c8.49 5.57 16.61 11.16 24 15.79 2.21 1.38 6.43 3.07 9.63 4.12ZM107.66 13.67c-.34-.16-.68-.25-1.02-.28-.07 0-.15 0-.22-.01-.43 0-.86.1-1.3.32-.98.47-1.74 1.39-1.98 2.46-.24 1.09-.06 2.28.54 3.61.44.95.96 1.66 1.55 2.15.37.3.81.54 1.44.61.34.05 1.04.02 1.37-.08.5-.17 1.04-.46 1.46-.88.48-.48.8-1.07.94-1.79.22-1.06.04-2.25-.55-3.54-.59-1.29-1.33-2.15-2.23-2.57ZM103.8 54.01c.27-.6.14-1.24-.44-1.9-.56-.66-1.31-1.07-2.22-1.21-.22-.04-.45-.07-.68-.07-.71-.01-1.45.15-2.24.45-1.05.4-1.7.9-1.96 1.49s-.1 1.22.46 1.89c.57.66 1.3 1.06 2.19 1.21.91.15 1.89.02 2.93-.37 1.04-.41 1.69-.9 1.96-1.49Z" class="cls1"/><path d="M135.09 23.47c-11.68-7.51-24.22-16.4-35.02-22.53C99.13.52 98.19.01 97.4 0c-.11 0-.23 0-.35.02-1.15.15-1.77 1.29-2.64 2.37-1.33 12.78-3.02 24.47-4.35 37.28 3.98-.17 9.45.05 15.05.14 6.11.1 12.07-.13 15.01-1.1 6.07-1.96 10.86-7.28 14.97-15.24Zm-28.15 6.48c.67-.02 1.3-.1 1.92-.27.62-.16 1.2-.39 1.72-.69 1.41-.8 2.23-1.94 2.47-3.44.25-1.5-.07-3.37-.96-5.62-.09.91-.37 1.73-.83 2.45-.45.73-1.07 1.3-1.82 1.74-1.57.89-3.05 1.06-4.47.51-1.4-.57-2.54-1.79-3.4-3.67-.84-1.85-1.04-3.59-.6-5.25.44-1.66 1.47-2.93 3.05-3.83.91-.52 1.8-.77 2.68-.78v.02c.86.01 1.72.28 2.56.8 1.69 1.04 3.22 3.06 4.6 6.08 1.29 2.83 1.74 5.42 1.32 7.77-.4 2.35-1.59 4.09-3.58 5.22-.53.3-1.1.55-1.7.74l-1.95.43-1.01-2.21Zm1.99 6.51-.71-1.51 12.53-5.63.7 1.52-12.52 5.62ZM105.51 56.39c-.79-.02-1.62.13-2.5.47-1.15.44-1.88 1-2.17 1.7-.28.69-.09 1.42.57 2.2.66.77 1.52 1.25 2.55 1.44 1.04.19 2.14.07 3.29-.38 1.15-.44 1.87-1.01 2.17-1.71.28-.7.09-1.44-.56-2.21-.66-.77-1.52-1.24-2.56-1.42-.26-.05-.52-.08-.79-.09Z" class="cls1"/><path d="M147.03 28.52c-3.48-1.08-6.45-2.36-9.68-4.05-4.06 7.89-9.12 13.82-15.43 16.16l.13 44.99h3.9v-5.75h2.82l4.47 5.75h4.32v-.3l-4.79-5.8c3.34-1.19 4.02-3.22 4.04-5.49 0-3.07-2.24-5.9-6.47-5.9h-6.56l23.35-38.06c.31-.75.36-1.23-.1-1.55Zm-21.08 42.96h4.39c1.83 0 2.6 1.45 2.63 2.65 0 1.1-.78 2.45-2.58 2.45h-4.44v-5.1Zm12.72-36-.92 2.16c-.97 1.21-2.3 2.84-3.96 4.89a688.67 688.67 0 0 0-3.19 3.95c-.86 1.09-1.51 2-1.96 2.71s-.81 1.37-1.08 2c-.44 1.01-.58 1.77-.46 2.26.13.48.51.61 1.15.37.45-.16.99-.48 1.62-.95.61-.46 1.34-1.09 2.15-1.87l-1.11 2.59c-.75.63-1.43 1.15-2.02 1.54-.6.4-1.1.68-1.53.84-1.1.41-1.77.23-2.01-.51s-.01-1.94.69-3.59c.34-.78.73-1.55 1.2-2.31.46-.76 1.11-1.69 1.95-2.81.22-.28.9-1.14 2.04-2.56l4.8-5.93-5.04 1.86.92-2.16 6.78-2.5-.02.02ZM104.93 42.05c-4.88-.09-11.55-.68-15.52-.1-2.37 2.13-4.92 4.39-7.41 6.4-2.21 1.72-4.47 3.5-7.22 4.28-.08 0-.14.01-.19.01v-1.7c.17.02.35.03.54.02 1.81-.54 4.12-2.06 6.51-3.99.91-.74 6.73-5.44 7.25-6.51 1.24-11.99 2.4-23.3 3.66-35.37h-.01c-7.35 12.81-13.83 23.32-21.2 36.22h-9.83v5.63h7.23v4.86c-2.33 1.77-4.33 2.12-6.45 2.12-7.15 0-9.53-5.42-9.53-9.75 0-6.63 3.77-9.92 9.53-9.92 2.43 0 5.24.91 7.1 2.69l4.21-4.21c-3.47-3.55-7.19-4.67-11.31-4.67-6.35 0-10.7 2.46-13.28 6.16-1.75-3.11-5.14-5.26-10.2-5.26H24.52v5.5c-1.65-3.18-5.06-5.5-10.1-5.5H.04v30.33H6.8v-9.96h4.89l7.76 9.96h11.82v-8.58h7.54c3.28-.03 5.87-.92 7.76-2.38 1.36 6.34 6.05 11.83 15.68 11.83 5.58 0 9.74-1.91 12.34-5.64v-1.5c.83.67 1.7 1.16 2.62 1.72l31.07 13.39h-2.61v17.49h13.31v-3.6h-9.49V78.5h8.62v-3.42h-8.62v-3.37h8.49c.21 0 .43-.02.65-.05.35-.05.7-.12 1.04-.27l.04-30.21c-3.47.92-9.01.97-14.78.87Zm-27.07-3.4c.26.09.59.06.99-.1s.86-.44 1.36-.84c.89-.69 1.66-1.52 2.32-2.48.66-.97 1.18-2.02 1.55-3.17.35-1.06.41-1.72.16-1.98-.23-.27-.73-.11-1.5.49l-1.22.95.65-2.01 1.27-.99c.7-.54 1.32-1.19 1.84-1.95.52-.77.93-1.61 1.22-2.51.3-.92.34-1.48.12-1.68-.21-.2-.67-.03-1.38.53-.4.3-.83.69-1.33 1.18-.49.49-1.05 1.1-1.68 1.81l.71-2.16c.63-.68 1.19-1.26 1.7-1.75.51-.5.97-.91 1.39-1.23.74-.57 1.3-.87 1.7-.87h.01c.18 0 .32.05.43.16.36.35.31 1.24-.16 2.67-.32 1-.77 1.97-1.32 2.92-.56.95-1.19 1.79-1.88 2.53.59-.28.96-.17 1.08.32s0 1.32-.38 2.47c-.58 1.78-1.39 3.43-2.42 4.96-1.02 1.53-2.19 2.8-3.5 3.81-.44.34-.87.62-1.29.83-.42.22-.82.36-1.22.45l.78-2.36Zm-63.35 4.96H6.8v-8.84h7.62c3.16 0 4.51 2.51 4.55 4.59 0 1.91-1.34 4.25-4.46 4.25Zm10.01 12.23-5.9-7.12c3.14-1.12 4.91-2.66 5.9-4.46v11.58Zm14.29-11.32h-7.54v-9.14h7.54c3.21 0 4.85 2.16 4.85 4.59s-1.6 4.55-4.85 4.55Zm72.45 12.89c1.07 1.24 1.34 2.39.85 3.46s-1.72 1.99-3.69 2.75c-1.98.76-3.79 1.01-5.41.74-1.63-.26-2.97-1-4.03-2.24-.7-.82-.96-1.64-.79-2.46.16-.82.75-1.55 1.76-2.18-.52.09-1.02.13-1.5.13-.64 0-1.25-.08-1.83-.23-1.01-.3-1.83-.8-2.46-1.53-.87-1.02-1.05-2.03-.55-3.01.51-.98 1.67-1.82 3.44-2.5 1.37-.52 2.66-.79 3.88-.79v-.02h.5c.19.01.39.03.58.06 1.52.21 2.73.82 3.59 1.84.63.74.88 1.47.72 2.2-.14.73-.65 1.38-1.53 1.96 1.34-.25 2.57-.21 3.71.11 1.14.32 2.06.88 2.76 1.7Z" class="cls1"/><path d="M95 78.5h4.18v2.8c-1.35 1.02-2.5 1.22-3.73 1.22-4.12 0-5.49-3.12-5.49-5.62 0-3.82 2.17-5.72 5.49-5.72 1.4 0 3.03.53 4.1 1.55l2.42-2.42c-2-2.05-4.14-2.7-6.52-2.7-6.42 0-9.31 4.37-9.31 9.29 0 4.55 2.54 9.22 9.29 9.22 3.22 0 5.62-1.1 7.12-3.25v-7.62H95v3.25ZM73.71 68.13l-7.84 17.48h4.2l1.27-3h8.97l1.27 3h4.22l-7.84-17.48h-4.25Zm-.9 11.04 3.02-7.09 3 7.09h-6.02ZM60.11 74l.24 5.5-8.81-11.37h-3.35v17.49h3.95v-5.45l-.15-5.74 8.69 11.19h3.35V68.13h-3.92V74zM34.25 68.13l-6.95 15.5V60.68h-6.32l-7.31 9.6-7.28-9.6H0v24.98h5.57V68.21l7.46 9.77h.99l7.71-9.7v17.34h8.88l1.27-3h8.97l1.27 3h4.22L38.5 68.13h-4.25Zm-.89 11.04 3.02-7.09 2.99 7.09h-6.01ZM139.87 83.01c0 3.85 5.85 3.85 5.85 0s-5.85-3.85-5.85 0Z" class="cls1"/></g></svg>