<?xml version="1.0" encoding="UTF-8"?>
<svg id="Layer_2" data-name="Layer 2" xmlns="http://www.w3.org/2000/svg" version="1.1" viewBox="0 0 147.4 86.1">
  <path d="M146,26.2c-3-3.2-6.4-5.9-10.2-7.9l-23.4-12c8.5,5.6,16.6,11.2,24,15.8,2.2,1.4,6.4,3.1,9.6,4.1h0ZM107.7,13.7c-.3-.2-.7-.2-1-.3,0,0-.2,0-.2,0-.4,0-.9.1-1.3.3-1,.5-1.7,1.4-2,2.5-.2,1.1,0,2.3.5,3.6.4,1,1,1.7,1.6,2.1.4.3.8.5,1.4.6.3,0,1,0,1.4,0,.5-.2,1-.5,1.5-.9.5-.5.8-1.1.9-1.8.2-1.1,0-2.2-.6-3.5-.6-1.3-1.3-2.1-2.2-2.6ZM103.8,54c.3-.6.1-1.2-.4-1.9-.6-.7-1.3-1.1-2.2-1.2-.2,0-.4,0-.7,0-.7,0-1.4.2-2.2.5-1.1.4-1.7.9-2,1.5s0,1.2.5,1.9c.6.7,1.3,1.1,2.2,1.2.9.2,1.9,0,2.9-.4,1-.4,1.7-.9,2-1.5Z" fill="#2e304c" stroke-width="0"/>
  <path d="M135.1,23.5c-11.7-7.5-24.2-16.4-35-22.5-.9-.4-1.9-.9-2.7-.9-.1,0-.2,0-.3,0-1.2.2-1.8,1.3-2.6,2.4-1.3,12.8-3,24.5-4.3,37.3,4-.2,9.4,0,15.1.1,6.1,0,12.1-.1,15-1.1,6.1-2,10.9-7.3,15-15.2h0ZM106.9,29.9c.7,0,1.3-.1,1.9-.3.6-.2,1.2-.4,1.7-.7,1.4-.8,2.2-1.9,2.5-3.4.2-1.5,0-3.4-1-5.6,0,.9-.4,1.7-.8,2.5-.4.7-1.1,1.3-1.8,1.7-1.6.9-3.1,1.1-4.5.5-1.4-.6-2.5-1.8-3.4-3.7-.8-1.9-1-3.6-.6-5.2s1.5-2.9,3.1-3.8c.9-.5,1.8-.8,2.7-.8h0c.9,0,1.7.3,2.6.8,1.7,1,3.2,3.1,4.6,6.1,1.3,2.8,1.7,5.4,1.3,7.8-.4,2.4-1.6,4.1-3.6,5.2-.5.3-1.1.5-1.7.7l-1.9.4s-1-2.2-1-2.2ZM108.9,36.5l-.7-1.5,12.5-5.6.7,1.5-12.5,5.6ZM105.5,56.4c-.8,0-1.6.1-2.5.5-1.2.4-1.9,1-2.2,1.7-.3.7,0,1.4.6,2.2.7.8,1.5,1.2,2.6,1.4,1,.2,2.1,0,3.3-.4,1.2-.4,1.9-1,2.2-1.7.3-.7,0-1.4-.6-2.2-.7-.8-1.5-1.2-2.6-1.4-.3,0-.5,0-.8,0Z" fill="#2e304c" stroke-width="0"/>
  <path d="M147,28.5c-3.5-1.1-6.4-2.4-9.7-4-4.1,7.9-9.1,13.8-15.4,16.2v45h4v-5.8h2.8l4.5,5.8h4.3v-.3l-4.8-5.8c3.3-1.2,4-3.2,4-5.5,0-3.1-2.2-5.9-6.5-5.9h-6.6l23.4-38.1c.3-.8.4-1.2-.1-1.5h0ZM125.9,71.5h4.4c1.8,0,2.6,1.4,2.6,2.7,0,1.1-.8,2.4-2.6,2.4h-4.4v-5.1ZM138.7,35.5l-.9,2.2c-1,1.2-2.3,2.8-4,4.9-1.1,1.3-2.1,2.6-3.2,4-.9,1.1-1.5,2-2,2.7s-.8,1.4-1.1,2c-.4,1-.6,1.8-.5,2.3.1.5.5.6,1.2.4.4-.2,1-.5,1.6-1,.6-.5,1.3-1.1,2.1-1.9l-1.1,2.6c-.8.6-1.4,1.2-2,1.5-.6.4-1.1.7-1.5.8-1.1.4-1.8.2-2-.5s0-1.9.7-3.6c.3-.8.7-1.5,1.2-2.3.5-.8,1.1-1.7,2-2.8.2-.3.9-1.1,2-2.6l4.8-5.9-5,1.9.9-2.2,6.8-2.5h0s0,0,0,0ZM104.9,42c-4.9,0-11.6-.7-15.5,0-2.4,2.1-4.9,4.4-7.4,6.4-2.2,1.7-4.5,3.5-7.2,4.3,0,0-.1,0-.2,0v-1.7c.2,0,.3,0,.5,0,1.8-.5,4.1-2.1,6.5-4,.9-.7,6.7-5.4,7.2-6.5,1.2-12,2.4-23.3,3.7-35.4h0c-7.3,12.8-13.8,23.3-21.2,36.2h-9.8v5.6h7.2v4.9c-2.3,1.8-4.3,2.1-6.5,2.1-7.2,0-9.5-5.4-9.5-9.8,0-6.6,3.8-9.9,9.5-9.9s5.2.9,7.1,2.7l4.2-4.2c-3.5-3.5-7.2-4.7-11.3-4.7-6.3,0-10.7,2.5-13.3,6.2-1.8-3.1-5.1-5.3-10.2-5.3h-14.3v5.5c-1.6-3.2-5.1-5.5-10.1-5.5H0v30.3h6.8v-10h4.9l7.8,10h11.8v-8.6h7.5c3.3,0,5.9-.9,7.8-2.4,1.4,6.3,6,11.8,15.7,11.8s9.7-1.9,12.3-5.6v-1.5c.8.7,1.7,1.2,2.6,1.7l31.1,13.4h-2.6v17.5h13.3v-3.6h-9.5v-3.5h8.6v-3.4h-8.6v-3.4h8.5c.2,0,.4,0,.7,0,.3,0,.7-.1,1-.3v-30.2c-3.4.9-9,1-14.7.9ZM77.9,38.6c.3,0,.6,0,1,0s.9-.4,1.4-.8c.9-.7,1.7-1.5,2.3-2.5.7-1,1.2-2,1.6-3.2.3-1.1.4-1.7.2-2-.2-.3-.7-.1-1.5.5l-1.2,1,.7-2,1.3-1c.7-.5,1.3-1.2,1.8-2,.5-.8.9-1.6,1.2-2.5.3-.9.3-1.5.1-1.7-.2-.2-.7,0-1.4.5-.4.3-.8.7-1.3,1.2-.5.5-1.1,1.1-1.7,1.8l.7-2.2c.6-.7,1.2-1.3,1.7-1.8.5-.5,1-.9,1.4-1.2.7-.6,1.3-.9,1.7-.9h0c.2,0,.3,0,.4.2.4.4.3,1.2-.2,2.7-.3,1-.8,2-1.3,2.9-.6,1-1.2,1.8-1.9,2.5.6-.3,1-.2,1.1.3s0,1.3-.4,2.5c-.6,1.8-1.4,3.4-2.4,5-1,1.5-2.2,2.8-3.5,3.8-.4.3-.9.6-1.3.8-.4.2-.8.4-1.2.5,0,0,.8-2.4.8-2.4ZM14.5,43.6h-7.7v-8.8h7.6c3.2,0,4.5,2.5,4.6,4.6,0,1.9-1.3,4.2-4.5,4.2ZM24.5,55.8l-5.9-7.1c3.1-1.1,4.9-2.7,5.9-4.5v11.6ZM38.8,44.5h-7.5v-9.1h7.5c3.2,0,4.8,2.2,4.8,4.6s-1.6,4.5-4.8,4.5ZM111.3,57.4c1.1,1.2,1.3,2.4.8,3.5s-1.7,2-3.7,2.8c-2,.8-3.8,1-5.4.7-1.6-.3-3-1-4-2.2-.7-.8-1-1.6-.8-2.5.2-.8.8-1.5,1.8-2.2-.5,0-1,.1-1.5.1s-1.2,0-1.8-.2c-1-.3-1.8-.8-2.5-1.5-.9-1-1.1-2-.6-3,.5-1,1.7-1.8,3.4-2.5,1.4-.5,2.7-.8,3.9-.8h0s.5,0,.5,0c.2,0,.4,0,.6,0,1.5.2,2.7.8,3.6,1.8.6.7.9,1.5.7,2.2-.1.7-.7,1.4-1.5,2,1.3-.2,2.6-.2,3.7.1s2.1.9,2.8,1.7h0Z" fill="#2e304c" stroke-width="0"/>
  <path d="M95,78.5h4.2v2.8c-1.3,1-2.5,1.2-3.7,1.2-4.1,0-5.5-3.1-5.5-5.6,0-3.8,2.2-5.7,5.5-5.7s3,.5,4.1,1.6l2.4-2.4c-2-2.1-4.1-2.7-6.5-2.7-6.4,0-9.3,4.4-9.3,9.3s2.5,9.2,9.3,9.2,5.6-1.1,7.1-3.2v-7.6h-7.6s0,3.2,0,3.2ZM73.7,68.1l-7.8,17.5h4.2l1.3-3h9l1.3,3h4.2l-7.8-17.5s-4.2,0-4.2,0ZM72.8,79.2l3-7.1,3,7.1h-6ZM60.1,74l.2,5.5-8.8-11.4h-3.3v17.5h4v-5.4l-.2-5.7,8.7,11.2h3.3v-17.5h-3.9v5.9ZM34.2,68.1l-7,15.5v-22.9h-6.3l-7.3,9.6-7.3-9.6H0v25h5.6v-17.5l7.5,9.8h1l7.7-9.7v17.3h8.9l1.3-3h9l1.3,3h4.2l-7.8-17.5h-4.2ZM33.4,79.2l3-7.1,3,7.1h-6ZM139.9,83c0,3.8,5.9,3.8,5.9,0s-5.9-3.8-5.9,0Z" fill="#2e304c" stroke-width="0"/>
</svg>